<svg width="50" height="50" viewBox="0 0 50 50" fill="none" xmlns="http://www.w3.org/2000/svg">
<path d="M25 2.72191e-06C11.1929 2.11838e-06 1.31404e-05 11.1929 1.25369e-05 25C1.19333e-05 38.8071 11.1929 50 25 50C38.8071 50 50 38.8071 50 25C50 11.1929 38.8071 3.32544e-06 25 2.72191e-06Z" fill="#ECECEC"/>
<path d="M25 2.72191e-06C11.1929 2.11838e-06 1.31404e-05 11.1929 1.25369e-05 25C1.19333e-05 38.8071 11.1929 50 25 50C38.8071 50 50 38.8071 50 25C50 11.1929 38.8071 3.32544e-06 25 2.72191e-06Z" stroke="transparent"/>
<path d="M26.6667 16.6667L18.3333 25L26.6667 33.3333" stroke="black"/>
</svg>
